Coordinates
version=1
nRows=8
nColumns=63
inDegrees=yes

Units are S.I. units (second, meters, Newtons, ...)
If the header above contains a line with 'inDegrees', this indicates whether rotational values are in degrees (yes) or radians (no).

endheader
time	pelvis_tilt	pelvis_list	pelvis_rotation	pelvis_tx	pelvis_ty	pelvis_tz	hip_flexion_r	hip_adduction_r	hip_rotation_r	knee_angle_r	knee_angle_r_beta	ankle_angle_r	subtalar_angle_r	mtp_angle_r	hip_flexion_l	hip_adduction_l	hip_rotation_l	knee_angle_l	knee_angle_l_beta	ankle_angle_l	subtalar_angle_l	mtp_angle_l	L5_S1_Flex_Ext	L5_S1_Lat_Bending	L5_S1_axial_rotation	L4_L5_Flex_Ext	L4_L5_Lat_Bending	L4_L5_axial_rotation	L3_L4_Flex_Ext	L3_L4_Lat_Bending	L3_L4_axial_rotation	L2_L3_Flex_Ext	L2_L3_Lat_Bending	L2_L3_axial_rotation	L1_L2_Flex_Ext	L1_L2_Lat_Bending	L1_L2_axial_rotation	L1_T12_Flex_Ext	L1_T12_Lat_Bending	L1_T12_axial_rotation	Abs_r3	Abs_r2	Abs_r1	Abs_t1	Abs_t2	neck_flexion	neck_bending	neck_rotation	arm_flex_r	arm_add_r	arm_rot_r	elbow_flex_r	pro_sup_r	wrist_flex_r	wrist_dev_r	arm_flex_l	arm_add_l	arm_rot_l	elbow_flex_l	pro_sup_l	wrist_flex_l	wrist_dev_l
      2.51666667	      0.32928848	      4.27779110	    -70.86152080	      0.04120994	      0.95546113	     -1.36516944	     46.17129671	     -9.30616282	      0.00000000	     60.72400624	      1.05983384	      0.00000000	      0.00000000	      0.00000000	     46.17129671	     -9.30616282	      0.00000000	     60.72400624	      1.05983384	      0.00000000	      0.00000000	      0.00000000	     -0.05921047	      0.36565346	     -2.35718038	     -0.10995976	      0.48631911	     -2.50450416	     -0.09727688	      0.88904983	     -2.50450416	     -0.06767164	      0.88904983	     -2.06253284	     -0.05498284	      0.74564054	     -1.91520906	     -0.03383286	      0.56639721	     -1.76788529	     -0.42293446	      4.13634511	    -13.10993014	      0.00000000	      0.00000000	    -12.20646742	      5.40569170	    -13.66456889	    -18.15297066	    -20.71338115	    -28.46394171	     45.72200031	     89.99559364	      0.00000000	      0.00000000	     -5.65025382	    -22.62118296	     19.42848850	     21.39659353	     89.99559364	      0.00000000	      0.00000000
      2.53333333	     -0.38531603	      3.37539667	    -72.89130480	      0.03501937	      0.95580633	     -1.35562152	     46.17951025	     -9.31520343	      0.00000000	     60.72189832	      1.05979705	      0.00000000	      0.00000000	      0.00000000	     46.17951025	     -9.31520343	      0.00000000	     60.72189832	      1.05979705	      0.00000000	      0.00000000	      0.00000000	     -0.06435423	      0.33945123	     -2.50012437	     -0.11951223	      0.45147014	     -2.65638214	     -0.10572756	      0.82534172	     -2.65638214	     -0.07355045	      0.82534172	     -2.18760882	     -0.05975933	      0.69220895	     -2.03135105	     -0.03677201	      0.52580995	     -1.87509328	     -0.45967581	      3.83994020	    -13.90494171	      0.00000000	      0.00000000	    -14.09577319	      4.38517622	    -10.42634528	    -16.90958216	    -21.98367749	    -24.55858479	     47.36428545	     89.99559364	      0.00000000	      0.00000000	     -5.95904011	    -23.30643802	     19.16872920	     20.37180830	     89.99559364	      0.00000000	      0.00000000
      2.55000000	     -0.93366119	      2.61372730	    -74.43389126	      0.02926864	      0.95652979	     -1.34610868	     46.18832806	     -9.32480192	      0.00000000	     60.71963725	      1.05975759	      0.00000000	      0.00000000	      0.00000000	     46.18832806	     -9.32480192	      0.00000000	     60.71963725	      1.05975759	      0.00000000	      0.00000000	      0.00000000	     -0.06912088	      0.28507128	     -2.59184489	     -0.12836439	      0.37914480	     -2.75383520	     -0.11355870	      0.69312230	     -2.75383520	     -0.07899826	      0.69312230	     -2.26786428	     -0.06418565	      0.58131735	     -2.10587397	     -0.03949567	      0.44157541	     -1.94388367	     -0.49372355	      3.22478331	    -14.41506373	      0.00000000	      0.00000000	    -16.08027174	      3.40077345	     -6.72202633	    -15.90677650	    -22.88141011	    -21.64752811	     48.81270277	     89.99559364	      0.00000000	      0.00000000	     -5.94623689	    -24.09300721	     18.81304736	     19.49878458	     89.99559364	      0.00000000	      0.00000000
      2.56666667	     -1.42880120	      2.14988751	    -75.29212630	      0.02458501	      0.95764119	     -1.33625415	     46.20878956	     -9.34666144	      0.00000000	     60.71439814	      1.05966615	      0.00000000	      0.00000000	      0.00000000	     46.20878956	     -9.34666144	      0.00000000	     60.71439814	      1.05966615	      0.00000000	      0.00000000	      0.00000000	     -0.06993318	      0.21516318	     -2.55677546	     -0.12987292	      0.28616703	     -2.71657392	     -0.11489323	      0.52314775	     -2.71657392	     -0.07992664	      0.52314775	     -2.23717852	     -0.06493996	      0.43876075	     -2.07738006	     -0.03995982	      0.33328776	     -1.91758159	     -0.49952575	      2.43396891	    -14.22001805	      0.00000000	      0.00000000	    -17.66374716	      3.66817547	     -3.25592939	    -15.65180210	    -23.24422455	    -20.92735351	     50.23959479	     89.99559364	      0.00000000	      0.00000000	     -5.30952171	    -24.81542580	     18.19768454	     18.89681343	     89.99559364	      0.00000000	      0.00000000
      2.58333333	     -1.94077430	      2.05516984	    -75.78302286	      0.02059252	      0.95892808	     -1.32549766	     46.21290597	     -9.35098061	      0.00000000	     60.71334541	      1.05964778	      0.00000000	      0.00000000	      0.00000000	     46.21290597	     -9.35098061	      0.00000000	     60.71334541	      1.05964778	      0.00000000	      0.00000000	      0.00000000	     -0.06946836	      0.13254815	     -2.30324178	     -0.12900969	      0.17628904	     -2.44719439	     -0.11412957	      0.32227757	     -2.44719439	     -0.07939539	      0.32227757	     -2.01533655	     -0.06450832	      0.27029219	     -1.87138394	     -0.03969422	      0.20531708	     -1.72743133	     -0.49620554	      1.49941117	    -12.80993978	      0.00000000	      0.00000000	    -17.93990567	      4.05459956	     -3.35791113	    -16.51595711	    -23.40405135	    -21.58888522	     51.77179545	     89.99559364	      0.00000000	      0.00000000	     -3.88321772	    -25.45522241	     17.82879910	     18.61021670	     89.99559364	      0.00000000	      0.00000000
      2.60000000	     -2.73862024	      2.22963300	    -75.99938387	      0.01723456	      0.96023839	     -1.31345535	     46.22169193	     -9.36012520	      0.00000000	     60.71110001	      1.05960859	      0.00000000	      0.00000000	      0.00000000	     46.22169193	     -9.36012520	      0.00000000	     60.71110001	      1.05960859	      0.00000000	      0.00000000	      0.00000000	     -0.06698931	      0.07304015	     -1.93644364	     -0.12440585	      0.09714341	     -2.05747137	     -0.11005674	      0.17758983	     -2.05747137	     -0.07656208	      0.17758983	     -1.69438819	     -0.06220627	      0.14894348	     -1.57336046	     -0.03827769	      0.11313920	     -1.45233273	     -0.47849794	      0.82624484	    -10.76991861	      0.00000000	      0.00000000	    -18.12141839	      5.34887059	     -4.57017303	    -18.12061182	    -23.08193804	    -24.51125181	     53.60744864	     89.99559364	      0.00000000	      0.00000000	     -2.30018270	    -25.84099133	     16.99879462	     18.84640851	     89.99559364	      0.00000000	      0.00000000
      2.61666667	     -3.63515596	      2.55418969	    -76.23334109	      0.01400526	      0.96134635	     -1.30024368	     46.22827629	     -9.36690572	      0.00000000	     60.70941856	      1.05957924	      0.00000000	      0.00000000	      0.00000000	     46.22827629	     -9.36690572	      0.00000000	     60.70941856	      1.05957924	      0.00000000	      0.00000000	      0.00000000	     -0.06556496	      0.01468446	     -1.64397836	     -0.12176070	      0.01953033	     -1.74672701	     -0.10771668	      0.03570379	     -1.74672701	     -0.07493420	      0.03570379	     -1.43848107	     -0.06088363	      0.02994455	     -1.33573242	     -0.03746382	      0.02274623	     -1.23298377	     -0.46832398	      0.16611354	     -9.14331445	      0.00000000	      0.00000000	    -17.78371856	      6.31855189	     -5.74242964	    -19.57644462	    -23.24442917	    -26.27298433	     55.81264309	     89.99559364	      0.00000000	      0.00000000	     -1.63166663	    -26.33470848	     15.91266810	     19.97314181	     89.99559364	      0.00000000	      0.00000000
      2.63333333	     -4.69169858	      2.90422422	    -76.51725384	      0.01072266	      0.96224844	     -1.28635443	     46.30230346	     -9.43944375	      0.00000000	     60.69058463	      1.05925053	      0.00000000	      0.00000000	      0.00000000	     46.30230346	     -9.43944375	      0.00000000	     60.69058463	      1.05925053	      0.00000000	      0.00000000	      0.00000000	     -0.06297370	     -0.03900631	     -1.55225919	     -0.11694846	     -0.05187839	     -1.64927539	     -0.10345949	     -0.09483994	     -1.64927539	     -0.07197264	     -0.09483994	     -1.35822679	     -0.05847738	     -0.07954167	     -1.26121059	     -0.03598317	     -0.06042078	     -1.16419439	     -0.44981485	     -0.44124719	     -8.63319995	      0.00000000	      0.00000000	    -16.70624110	      8.04503271	     -7.15742655	    -20.20988827	    -23.89875076	    -26.75133312	     58.08489627	     89.99559364	      0.00000000	      0.00000000	     -3.20965652	    -25.37056033	      2.38050520	     22.16095265	     89.99559364	      0.00000000	      0.00000000
